<svg xmlns="http://www.w3.org/2000/svg" width="162.307" height="18" viewBox="0 0 162.307 18">
	<g transform="translate(-235.59 -116.875)">
		<path d="M455.678,118.549,451,135.952h-5.4l1.865-6.962h-6.006l-1.866,6.962h-5.4l3.512-13.1a5.413,5.413,0,0,1,2.35-3.5,8.754,8.754,0,0,1,4.214-.8Zm-117.5,2.514a7.78,7.78,0,0,1-.315,1.982l-2.2,8.194a6.313,6.313,0,0,1-2.253,3.819,8.269,8.269,0,0,1-4.408.894H317.57l4.675-17.4h11.432a9.21,9.21,0,0,1,2.931.338,2.136,2.136,0,0,1,1.574,2.175Zm-5.716,1.982h-6.031l-2.2,8.194h6.031l2.2-8.194Zm24.511-1.982a2.136,2.136,0,0,0-1.574-2.175,9.207,9.207,0,0,0-2.931-.338H341.04l-4.675,17.4H347.8a8.267,8.267,0,0,0,4.408-.894,6.31,6.31,0,0,0,2.252-3.819l2.2-8.194a7.769,7.769,0,0,0,.315-1.982Zm-5.716,1.982-2.2,8.194h-6.031l2.2-8.194Zm24.1-4.5-1.211,4.5H363.832l-.606,2.272h7.048q3.295,0,3.294,2.368a22.962,22.962,0,0,1-.8,3.554,7.069,7.069,0,0,1-1.986,3.686,6.3,6.3,0,0,1-4,1.027H355.04l1.26-4.713h11.142l.606-2.248H361a4.541,4.541,0,0,1-2.834-.628,1.815,1.815,0,0,1-.533-1.451,25.922,25.922,0,0,1,.872-3.868,6.316,6.316,0,0,1,1.986-3.5,6.5,6.5,0,0,1,3.948-.991ZM393.5,120.99a2.066,2.066,0,0,0-1.259-2.079,6.85,6.85,0,0,0-2.592-.363H377.88l-4.675,17.4h5.4l1.84-6.816h6.976a5.665,5.665,0,0,0,2.81-.628,4.948,4.948,0,0,0,2.325-3.191l.581-2.127a9.132,9.132,0,0,0,.363-2.2Zm-5.74,2.055-.63,2.393h-5.692l.63-2.393Zm22.937-4.5-1.211,4.5h-9.3l-.606,2.272h8.478l-.993,3.674h-8.477l-.606,2.248h9.3l-1.26,4.713H391.25l4.675-17.4Zm17.705,2.514a2.136,2.136,0,0,0-1.574-2.175,9.208,9.208,0,0,0-2.931-.338H412.468l-4.675,17.4h11.432a8.266,8.266,0,0,0,4.408-.894,6.31,6.31,0,0,0,2.253-3.819l2.2-8.194a7.764,7.764,0,0,0,.315-1.982Zm-5.716,1.982-2.2,8.194h-6.031l2.2-8.194Zm26.425-.194h-6.007l-.7,2.659h6.006Z" transform="translate(-57.78 -1.134)" fill="#fff" fill-rule="evenodd"/>
		<path d="M264.462,132.127a9.31,9.31,0,0,0,.779-1.944l2.431-8.474q.828-2.84-.214-3.887-.923-.947-3.969-.947H257.3a11.375,11.375,0,0,0-3.254.374,4.759,4.759,0,0,0-2.846,2.293,10.342,10.342,0,0,0-.854,2.168l-2.429,8.469h3.654l-9.976,4.64h16.758a11.352,11.352,0,0,0,3.254-.374,4.856,4.856,0,0,0,2.86-2.318Zm-4.79-1.944H253.48l2.417-8.448h8.29l-2.508,1.436Z" transform="translate(-6)" fill="#00b1ff" fill-rule="evenodd"/>
		<g transform="translate(368.803 117.231)">
			<path d="M655.376,142.933h5.411l4.112-14.213-8.133,9.517Z" transform="translate(-655.376 -125.289)" fill="#fff"/>
			<path d="M662.386,127.153l7.841-9.175h-5.21Z" transform="translate(-660.124 -117.978)" fill="#00b1ff"/>
		</g>
	</g>
</svg>